TITLE ""
FILE "P1Q_t_0159-0168.mp3" MP3
  TRACK 01 AUDIO
    TITLE "P1Q_t_0159-0168_01"
    INDEX 01 00:00:00
  TRACK 02 AUDIO
    TITLE "P1Q_t_0159-0168_02"
    INDEX 01 00:01:29
  TRACK 03 AUDIO
    TITLE "P1Q_t_0159-0168_03"
    INDEX 01 00:01:51
  TRACK 04 AUDIO
    TITLE "P1Q_t_0159-0168_04"
    INDEX 01 00:02:58
  TRACK 05 AUDIO
    TITLE "P1Q_t_0159-0168_05"
    INDEX 01 00:03:03
  TRACK 06 AUDIO
    TITLE "P1Q_t_0159-0168_06"
    INDEX 01 00:06:42
  TRACK 07 AUDIO
    TITLE "P1Q_t_0159-0168_07"
    INDEX 01 00:07:16
  TRACK 08 AUDIO
    TITLE "P1Q_t_0159-0168_08"
    INDEX 01 00:08:33
  TRACK 09 AUDIO
    TITLE "P1Q_t_0159-0168_09"
    INDEX 01 00:08:57
  TRACK 10 AUDIO
    TITLE "P1Q_t_0159-0168_10"
    INDEX 01 00:11:28
  TRACK 11 AUDIO
    TITLE "P1Q_t_0159-0168_11"
    INDEX 01 00:11:51
  TRACK 12 AUDIO
    TITLE "P1Q_t_0159-0168_12"
    INDEX 01 00:16:62
  TRACK 13 AUDIO
    TITLE "P1Q_t_0159-0168_13"
    INDEX 01 00:17:36
  TRACK 14 AUDIO
    TITLE "P1Q_t_0159-0168_14"
    INDEX 01 00:18:49
  TRACK 15 AUDIO
    TITLE "P1Q_t_0159-0168_15"
    INDEX 01 00:18:71
  TRACK 16 AUDIO
    TITLE "P1Q_t_0159-0168_16"
    INDEX 01 00:21:36
  TRACK 17 AUDIO
    TITLE "P1Q_t_0159-0168_17"
    INDEX 01 00:21:65
  TRACK 18 AUDIO
    TITLE "P1Q_t_0159-0168_18"
    INDEX 01 00:27:25
  TRACK 19 AUDIO
    TITLE "P1Q_t_0159-0168_19"
    INDEX 01 00:28:03
  TRACK 20 AUDIO
    TITLE "P1Q_t_0159-0168_20"
    INDEX 01 00:29:20
  TRACK 21 AUDIO
    TITLE "P1Q_t_0159-0168_21"
    INDEX 01 00:29:41
  TRACK 22 AUDIO
    TITLE "P1Q_t_0159-0168_22"
    INDEX 01 00:31:56
  TRACK 23 AUDIO
    TITLE "P1Q_t_0159-0168_23"
    INDEX 01 00:32:01
  TRACK 24 AUDIO
    TITLE "P1Q_t_0159-0168_24"
    INDEX 01 00:36:37
  TRACK 25 AUDIO
    TITLE "P1Q_t_0159-0168_25"
    INDEX 01 00:37:08
  TRACK 26 AUDIO
    TITLE "P1Q_t_0159-0168_26"
    INDEX 01 00:38:19
  TRACK 27 AUDIO
    TITLE "P1Q_t_0159-0168_27"
    INDEX 01 00:38:40
  TRACK 28 AUDIO
    TITLE "P1Q_t_0159-0168_28"
    INDEX 01 00:42:34
  TRACK 29 AUDIO
    TITLE "P1Q_t_0159-0168_29"
    INDEX 01 00:42:54
  TRACK 30 AUDIO
    TITLE "P1Q_t_0159-0168_30"
    INDEX 01 00:46:63
  TRACK 31 AUDIO
    TITLE "P1Q_t_0159-0168_31"
    INDEX 01 00:47:33
  TRACK 32 AUDIO
    TITLE "P1Q_t_0159-0168_32"
    INDEX 01 00:48:45
  TRACK 33 AUDIO
    TITLE "P1Q_t_0159-0168_33"
    INDEX 01 00:48:64
  TRACK 34 AUDIO
    TITLE "P1Q_t_0159-0168_34"
    INDEX 01 00:51:29
  TRACK 35 AUDIO
    TITLE "P1Q_t_0159-0168_35"
    INDEX 01 00:51:49
  TRACK 36 AUDIO
    TITLE "P1Q_t_0159-0168_36"
    INDEX 01 00:55:72
  TRACK 37 AUDIO
    TITLE "P1Q_t_0159-0168_37"
    INDEX 01 00:56:42
  TRACK 38 AUDIO
    TITLE "P1Q_t_0159-0168_38"
    INDEX 01 00:57:53
  TRACK 39 AUDIO
    TITLE "P1Q_t_0159-0168_39"
    INDEX 01 00:57:75
  TRACK 40 AUDIO
    TITLE "P1Q_t_0159-0168_40"
    INDEX 01 00:58:74
  TRACK 41 AUDIO
    TITLE "P1Q_t_0159-0168_41"
    INDEX 01 00:59:21
  TRACK 42 AUDIO
    TITLE "P1Q_t_0159-0168_42"
    INDEX 01 01:04:01
  TRACK 43 AUDIO
    TITLE "P1Q_t_0159-0168_43"
    INDEX 01 01:04:46
  TRACK 44 AUDIO
    TITLE "P1Q_t_0159-0168_44"
    INDEX 01 01:05:72
  TRACK 45 AUDIO
    TITLE "P1Q_t_0159-0168_45"
    INDEX 01 01:06:17
  TRACK 46 AUDIO
    TITLE "P1Q_t_0159-0168_46"
    INDEX 01 01:07:11
  TRACK 47 AUDIO
    TITLE "P1Q_t_0159-0168_47"
    INDEX 01 01:07:30
  TRACK 48 AUDIO
    TITLE "P1Q_t_0159-0168_48"
    INDEX 01 01:12:65
  TRACK 49 AUDIO
    TITLE "P1Q_t_0159-0168_49"
    INDEX 01 01:13:37
  TRACK 50 AUDIO
    TITLE "P1Q_t_0159-0168_50"
    INDEX 01 01:14:52
  TRACK 51 AUDIO
    TITLE "P1Q_t_0159-0168_51"
    INDEX 01 01:14:75
  TRACK 52 AUDIO
    TITLE "P1Q_t_0159-0168_52"
    INDEX 01 01:17:58
  TRACK 53 AUDIO
    TITLE "P1Q_t_0159-0168_53"
    INDEX 01 01:18:06
  TRACK 54 AUDIO
    TITLE "P1Q_t_0159-0168_54"
    INDEX 01 01:23:33
  TRACK 55 AUDIO
    TITLE "P1Q_t_0159-0168_55"
    INDEX 01 01:24:05
  TRACK 56 AUDIO
    TITLE "P1Q_t_0159-0168_56"
    INDEX 01 01:25:26
  TRACK 57 AUDIO
    TITLE "P1Q_t_0159-0168_57"
    INDEX 01 01:25:48
  TRACK 58 AUDIO
    TITLE "P1Q_t_0159-0168_58"
    INDEX 01 01:28:66
  TRACK 59 AUDIO
    TITLE "P1Q_t_0159-0168_59"
    INDEX 01 01:29:10
  TRACK 60 AUDIO
    TITLE "P1Q_t_0159-0168_60"
    INDEX 01 01:33:02
